<?xml version="1.0" standalone="no"?>
<!DOCTYPE svg PUBLIC "-//W3C//DTD SVG 1.0//EN" "http://www.w3.org/TR/2001/REC-SVG-20010904/DTD/svg10.dtd">
<svg xmlns="http://www.w3.org/2000/svg" xmlns:xlink="http://www.w3.org/1999/xlink" id="logo" width="100" height="100" fill="#E8EAF6">
	<g transform="scale(-1 1) translate(-100,0)">
		<circle cx="15.001" cy="85" r="15"></circle>
		<circle cx="85" cy="15" r="15"></circle>
		<path d="M33.458,48.223c0,0-3.92,6.733-6.254,12.577c-2.334,5.845-4.132,13.427-4.132,13.427l-7.429-2.969     c0,0,3.906-6.699,6.254-12.576c2.347-5.877,4.132-13.427,4.132-13.427L33.458,48.223z"></path>
		<circle cx="34.873" cy="35.083" r="14.999"></circle>
		<path d="M45.582,26.924c0,0,7.566-1.857,13.393-4.238c5.825-2.381,12.527-6.354,12.527-6.354l3.025,7.405     c0,0-7.533,1.845-13.393,4.238c-5.857,2.395-12.528,6.354-12.528,6.354L45.582,26.924z"></path>
	</g>
</svg>